<?xml version="1.0" encoding="UTF-8"?>
<svg version="1.0" xmlns="http://www.w3.org/2000/svg" width="234" height="61" >
<path fill="#231F20" d="M17.347,21.873c4.282-1.487,8.593-3.112,12.625-5.191c0.954-0.491,7.543-3.878,3.938-5.166 c-3.993-1.426-9.333-0.51-13.433-0.138c-5.629,0.511-11.528,1.368-16.776,3.561c-3.405,1.423-4.904,3.309-2.58,6.483 c4.339,5.927,15.1,9.872,11.214,18.847c-1.748,4.036,0.275,5.238,3.942,3.429c5.83-2.875,10.147-9.301,11.989-15.341 c-0.644,0.082-1.287,0.164-1.931,0.245c-0.633,3.737-1.874,12.349,3.586,12.811c4.768,0.403,6.436-8.167,7.011-11.389 c-0.644,0.082-1.288,0.164-1.932,0.245c-0.286,2.718-0.747,9.006,3.256,9.088c4.106,0.083,5.934-5.111,6.676-8.333 c-0.645,0.127-1.288,0.254-1.932,0.381c0.486,4.728,2.428,9.488,7.75,6.64c2.704-1.447,5.228-3.414,6.271-6.389 c0.465-1.326-0.37-2.998-1.894-2.535c-2.763,0.839-5.293,5.939-3.166,8.318c4.015,4.489,13.701-7.529,15.773-5.583 c0.812,1.118,0.982,2.327,0.513,3.628c0.238-1.084-4.692,2.788-2.906,2.641c1.351-0.111,2.755-0.365,4.03-0.817 c4.44-1.574,7.691-4.482,10.252-8.396c1.703-2.603,7.274-16.465,0.62-17.21c-4.654-0.521-5.655,4.401-5.881,8.119 c-0.406,6.707,2.072,14.721,8.5,17.791c0.563,0.269,2.338-0.548,1.539-0.93c-7.224-3.45-10.963-16.486-6.501-23.36 c2.233-3.441,3.373,4.726,3.364,5.108c-0.074,3.223-1.336,6.45-2.766,9.278c-1.881,3.72-4.966,6.717-8.769,8.419 c-1.814,0.812-3.674,0.687-5.533,1.121c-0.254,0.059-0.804,0.277-0.837,0.601c-0.003,0.027-0.006,0.054-0.009,0.081 c-0.019,0.181,0.051,0.249,0.196,0.342c6.767,4.347,9.381-10.628,2.488-7.588c-1.893,0.834-3.521,2.659-5.222,3.795 c-1.373,0.918-6.941,3.973-7.638,1.038c-0.292-1.234,0.469-2.854,1.009-3.899c0.479-0.927,1.153-2.292,0.903,0.284 c-0.21,2.162-2.96,4.025-4.585,5.07c-4.489,2.888-5.306-3.484-5.573-6.084c-0.069-0.671-1.811-0.142-1.932,0.381 c-0.274,1.194-3.227,9.583-5.446,5.765c-1.108-1.905-0.843-4.921-0.622-7.01c0.082-0.777-1.818-0.388-1.932,0.245 c-0.317,1.778-2.5,11.842-5.638,9.534c-2.764-2.032-1.58-8.595-1.098-11.445c0.131-0.775-1.75-0.35-1.931,0.245 c-1.773,5.815-5.864,11.868-11.463,14.629c-2.981,1.47,0.012-4.789,0.182-5.362c0.579-1.951-0.048-3.997-0.931-5.728 c-2.09-4.098-6.672-6.811-9.87-9.966c-4.069-4.015-1.952-5.886,2.697-7.362c7.441-2.363,17.044-3.719,24.821-2.495 c2.4,0.378,0.345,1.873-0.811,2.604c-1.954,1.236-4.138,2.135-6.258,3.042c-2.662,1.14-5.38,2.171-8.116,3.122 C15.308,21.533,16.479,22.174,17.347,21.873L17.347,21.873 M1.208,27.843c39.693-4.155,79.534-7.103,119.333-10c0.475-0.034,2.12-0.817,0.852-0.725 c-39.8,2.897-79.641,5.845-119.334,10C1.592,27.167-0.056,27.975,1.208,27.843L1.208,27.843 M89.591,7.191c5.074-2.97,4.543,11.061,4.539,12.391c-0.019,6.549-0.979,13.136-3.137,19.325 c-0.276,0.793,1.688,0.559,1.947-0.187c1.397-4.011,8.128-39.731-4.598-32.284C87.215,7.097,88.863,7.617,89.591,7.191 L89.591,7.191 M109.067,0.459c-8.139,12.312-7.114,29.378-2.399,42.614c0.243,0.682,2.159,0.121,1.932-0.518 c-4.644-13.036-5.762-29.907,2.267-42.053C111.362-0.248,109.416-0.069,109.067,0.459L109.067,0.459 M121.295,21.754c-2.896-0.247-7.45-0.849-9.96,0.956c-3.821,2.747,3.252,4.958,3.393,7.396 c0.119,2.073-4.062,8.056,1.183,6.856c4.892-1.119,9.101-7.136,10.984-11.357c-0.637-0.02-1.272-0.039-1.908-0.058 c-0.525,2.402-1.32,8.75,2.722,8.682c4.577-0.077,7.065-4.44,7.906-8.481c-0.653,0.044-1.308,0.088-1.961,0.133 c0.047,3.357,0.926,7.434,4.718,8.073c3.988,0.673,7.139-3.714,7.243-7.206c0.031-1.042-1.892-0.772-1.961,0.133 c-0.241,3.131,0.789,8.188,4.901,8c4.162-0.19,6.431-3.714,7.393-7.467c-0.653,0.044-1.308,0.088-1.961,0.133 c-1.832,9.534,7.958,6.918,10.575,0.392c-0.618-0.083-1.237-0.166-1.855-0.249c-1.035,2.819-1.354,6.313,2.266,6.851 c3.767,0.56,6.345-4.4,7.256-7.269c-0.637-0.02-1.272-0.039-1.908-0.058c-0.137,3.893,3.916,3.507,6.499,2.623 c1.159-0.396,0.813-1.784-0.369-1.379c-1.478,0.505-4.246,0.839-4.169-1.377c0.034-0.967-1.671-0.804-1.908-0.058 c-0.45,1.419-1.11,2.733-1.928,3.979c-1.252,1.908-4.61,2.084-4.463-0.662c0.044-0.814,0.3-1.64,0.58-2.401 c0.394-1.073-1.523-1.075-1.855-0.249c-0.159,0.399-0.349,0.776-0.54,1.161c-0.486,0.98-4.65,7.13-6.271,2.256 c-0.367-1.102-0.165-2.563,0.052-3.692c0.196-1.021-1.744-0.714-1.961,0.133c-0.569,2.22-3.782,9.154-7.438,4.364 c-0.997-1.307-1.055-3.604-0.935-5.164c-0.653,0.044-1.308,0.088-1.961,0.133c-0.104,3.476-5.426,7.483-7.295,3.105 c-0.548-1.282-0.725-2.856-0.744-4.238c-0.015-1.078-1.782-0.728-1.961,0.133c-0.154,0.739-0.397,1.448-0.652,2.157 c-0.413,1.152-4.243,7.793-6.167,3.407c-0.751-1.714-0.276-4.245,0.113-6.03c0.214-0.978-1.617-0.71-1.908-0.058 c-1.772,3.973-4.673,7.473-8.424,9.729c-2.762,1.662-0.398-3.079-0.119-3.99c0.285-0.929,0.227-1.786-0.064-2.68 c-0.335-1.035-6.125-4.087-3.033-4.998c2.224-0.656,4.961-0.405,7.24-0.211C121.613,23.29,122.601,21.866,121.295,21.754 L121.295,21.754 M181.602,27.45c-2.62-0.107-9.266,2.289-5.887,5.865c0.957,1.014,3.425,0.322,4.48-0.108 c2.704-1.104,4.63-3.013,5.07-5.985c0.027-0.185-1.802,0.003-1.916,0.44c-1.863,7.172-2.801,14.675-2.682,22.078 c0.004,0.256,1.939-0.017,1.932-0.518c-0.118-7.348,0.8-14.805,2.65-21.922c-0.639,0.146-1.277,0.293-1.916,0.44 c-0.318,2.146-2.663,6.64-5.793,4.94c-2.49-1.353,1.134-4.569,2.791-4.501C180.704,28.194,182.528,27.487,181.602,27.45 L181.602,27.45 M191.013,25.647c-0.472,2.056-1.922,9.195,1.872,8.9c4.084-0.317,5.738-4.366,6.703-7.9 c-0.641,0.142-1.28,0.284-1.92,0.425c-0.173,2.095-0.408,7.388,2.884,7.142c4.241-0.317,6.991-3.52,5.048-7.659 c-0.625,0.197-1.25,0.394-1.875,0.591c4.647,2.034,10.264,1.874,13.785-2.065c0.472-0.527-1.382-0.13-1.618,0.028 c-2.029,1.363-7.394,7.844-1.777,7.844c3.262,0,7.717-4.139,7.485-7.397c-0.027-0.393-1.852,0.007-1.92,0.425 c-0.596,3.689,1.372,5.742,4.98,5.033c1.684-0.331,3.12-1.467,4.43-2.5c0.747-0.589,2.305-2.642,2.58-0.91 c0.141,0.89-0.042,1.954-0.058,2.866c-0.162,9.921-0.431,19.679-1.278,29.604c-0.024,0.288,1.881,0.074,1.932-0.518 c0.813-9.523,1.481-18.965,1.282-28.515c-0.04-1.904,1.025-5.885-1.874-5.362c-1.396,0.252-2.539,1.437-3.564,2.316 c-3.188,2.733-7.253,2.177-6.521-2.347c-0.641,0.142-1.28,0.284-1.92,0.425c0.13,1.824-4.581,8.108-6.101,4.651 c-0.907-2.064,2.431-4.613,3.809-5.539c-0.539,0.009-1.079,0.019-1.618,0.028c-2.69,3.008-6.863,2.735-10.215,1.269 c-0.277-0.122-2.099,0.116-1.875,0.591c0.212,0.451,0.424,0.902,0.636,1.354c0.776,2.739-0.558,4.084-4.001,4.035 c-0.465-0.644-0.542-1.655-0.661-2.406c-0.182-1.138-0.137-2.354-0.042-3.5c0.027-0.33-1.8-0.013-1.92,0.425 c-0.21,0.77-3.108,8.607-4.895,5.752c-1.188-1.899-0.323-5.425,0.136-7.418C193.024,24.861,191.126,25.157,191.013,25.647 L191.013,25.647z"/>
</svg>