<?xml version="1.0" encoding="UTF-8" standalone="no"?>
<!-- Generator: Adobe Illustrator 14.0.0, SVG Export Plug-In . SVG Version: 6.00 Build 43363)  -->

<svg
   xmlns:dc="http://purl.org/dc/elements/1.1/"
   xmlns:cc="http://creativecommons.org/ns#"
   xmlns:rdf="http://www.w3.org/1999/02/22-rdf-syntax-ns#"
   xmlns:svg="http://www.w3.org/2000/svg"
   xmlns="http://www.w3.org/2000/svg"
   xmlns:sodipodi="http://sodipodi.sourceforge.net/DTD/sodipodi-0.dtd"
   xmlns:inkscape="http://www.inkscape.org/namespaces/inkscape"
   version="1.1"
   id="svg7538"
   sodipodi:version="0.32"
   sodipodi:docname="Oriental_field_week_world_map.svg"
   inkscape:version="0.48.2 r9819"
   x="0px"
   y="0px"
   width="649.52765"
   height="286.54602"
   viewBox="0 0 649.52764 286.54603"
   enable-background="new 0 0 1100.166 837.097"
   xml:space="preserve"><metadata
   id="metadata958"><rdf:RDF><cc:Work
       rdf:about=""><dc:format>image/svg+xml</dc:format><dc:type
         rdf:resource="http://purl.org/dc/dcmitype/StillImage" /></cc:Work></rdf:RDF></metadata><defs
   id="defs956" /><sodipodi:namedview
   inkscape:zoom="1.0203321"
   inkscape:pageopacity="0.0"
   inkscape:pageshadow="2"
   inkscape:window-width="1920"
   pagecolor="#ffffff"
   bordercolor="#666666"
   inkscape:current-layer="svg7538"
   borderopacity="1.0"
   inkscape:cx="258.65211"
   inkscape:cy="118.84883"
   inkscape:document-units="px"
   inkscape:window-height="1018"
   inkscape:window-x="-8"
   inkscape:window-y="-8"
   showguides="true"
   inkscape:guide-bbox="true"
   id="base"
   showgrid="false"
   inkscape:window-maximized="1"
   fit-margin-top="0"
   fit-margin-left="0"
   fit-margin-right="0"
   fit-margin-bottom="0">
	</sodipodi:namedview>
















































































































































































































































































































































































































































































































































































































































































































































































































































































































































































<path
   sodipodi:type="inkscape:offset"
   inkscape:radius="-1.0622866"
   inkscape:original="M 676.125 79.78125 C 662.1 79.9321 642.75 80.53706 633.125 81.09375 C 623.5 81.65045 604.825 81.82074 591.625 81.46875 C 561.74683 80.67204 547.30935 82.0887 525.90625 87.96875 C 509.34106 92.51969 500.9348 95.494082 481.84375 103.53125 C 470.89053 108.14246 467.87595 109.8822 464.375 113.625 C 459.5552 118.77777 457.62749 124.37801 458.59375 130.40625 C 459.48781 135.98403 460.37875 148.16762 460.46875 156 C 460.52922 161.26204 459.84173 164.30933 456.8125 172 C 451.75653 184.83617 451.71749 184.86326 441.125 195.84375 C 436.00676 201.14947 428.41342 209.02456 424.25 213.34375 C 416.39583 221.49177 393.2553 239.45154 377.625 249.53125 C 372.33228 252.94444 365.65757 256.25571 361.4375 257.5625 C 357.49071 258.78467 352.91174 260.58089 351.25 261.5625 C 346.87887 264.14459 343.125 262.35319 343.125 257.6875 C 343.125 254.7791 344.68358 252.76363 355.375 241.75 C 369.10442 227.60681 377.99816 219.56081 386.125 213.9375 C 389.15 211.84436 397.25 204.64954 404.125 197.9375 C 416.9183 185.44745 439.24997 164.51196 449.5 155.40625 C 455.163 150.37546 455.24465 150.24839 454.9375 145.40625 C 454.67684 141.29704 454.26961 140.4401 452.5 140.1875 C 451.33834 140.02169 449.08834 140.92169 447.5 142.1875 C 445.91165 143.45331 443.05 145.3338 441.125 146.375 C 439.2 147.4162 434.475 151.72052 430.625 155.9375 C 426.775 160.15448 421.70691 164.94568 419.375 166.5625 C 414.24456 170.11967 394.43603 191.75154 387.28125 201.625 C 382.20765 208.62647 370.48622 219.94709 356.625 231.1875 C 352.775 234.30956 346.15036 240.58173 341.9375 245.15625 C 337.54164 249.92947 331.78916 254.9597 328.4375 256.9375 C 325.22536 258.83296 315.65 264.97039 307.125 270.5625 C 286.77806 283.90939 285.31838 284.63087 283.3125 282.625 C 281.98048 281.29297 281.96018 280.47804 283.0625 276.78125 C 284.1214 273.23011 287.87082 268.91803 304.8125 251.84375 C 316.07724 240.49084 329.55418 227.44084 334.75 222.84375 C 339.94583 218.24665 352.78768 204.88632 363.28125 193.15625 C 378.15207 176.53312 383.52267 169.72186 387.71875 162.3125 C 395.08345 149.30807 395.15823 142.49744 387.875 144.34375 C 386.63873 144.65714 381.8 149.51585 377.125 155.15625 C 372.45 160.79665 362.775 171.51998 355.625 178.96875 C 342.86421 192.26276 328.42087 208.6751 308.59375 232.46875 C 292.49959 251.78265 285.46138 258.62244 271.59375 268.46875 C 253.23523 281.50368 247.51235 284.88309 222.625 297.28125 C 184.60442 316.22201 178.39246 318.69089 173.09375 316.84375 C 167.58091 314.92197 166.79603 310.81704 170.625 303.96875 C 172.00404 301.50226 174.75562 296.35 176.75 292.5 C 181.80832 282.7353 208.04769 256.01308 219.5625 248.90625 C 228.58989 243.33464 232.22857 242.73238 234.65625 246.4375 C 236.45744 249.18646 236.02039 251.65203 233.0625 255.0625 C 231.33788 257.051 231.24615 257.55865 232.46875 258.78125 C 235.76002 262.07253 240.39982 257.30262 241.65625 249.34375 C 242.54242 243.73033 238.95619 238.61505 233.84375 238.1875 C 226.92343 237.60875 215.03668 244.29417 199.4375 257.53125 C 191.828 263.98848 184.55683 270.43703 183.28125 271.875 C 178.29989 277.49054 168.52946 292.86727 165.40625 300 C 162.6144 306.376 162.23713 308.24933 162.75 312.5 C 163.08181 315.25 163.96216 318.47728 164.71875 319.6875 C 166.15255 321.98092 171.58577 323.95875 176.4375 323.96875 C 180.87979 323.97752 206.37148 312.89381 220.125 304.96875 C 227 301.00723 238.25 294.62443 245.125 290.75 C 252 286.87556 261 281.49072 265.125 278.8125 C 269.25 276.13427 273.525 274.07094 274.625 274.21875 C 276.34614 274.45002 276.58045 275.12616 276.3125 279.03125 C 276.05751 282.74747 276.44148 284.06006 278.5 286.28125 C 279.88249 287.77298 281.82374 288.97575 282.8125 288.96875 C 286.4925 288.94446 295.13795 286.1238 297.71875 284.09375 C 299.18679 282.93899 301.12831 282 302.03125 282 C 303.84768 282 315.13656 274.36135 325.3125 266.25 C 328.93496 263.3625 332.3549 261 332.90625 261 C 333.4576 261 335.3423 262.33265 337.09375 263.96875 C 340.30708 266.97045 345.52415 268.95975 350.125 268.96875 C 352.50325 268.97334 371.76154 259.78467 384.625 252.5 C 391.44468 248.63797 393.1908 249.11817 391.3125 254.3125 C 389.40271 259.59393 389.74398 265.74464 392.03125 266.96875 C 397.01328 269.63505 400.80321 267.75693 412.09375 257.0625 C 416.20398 253.16929 419.96906 250 420.46875 250 C 420.96844 250 421.13347 251.74624 420.84375 253.90625 C 420.17437 258.89685 421.8364 261.33186 427.65625 263.90625 C 431.64887 265.67238 432.125 266.22173 432.125 269.1875 C 432.125 273.42491 425.16385 284.11924 416.625 293 C 413.18764 296.575 406.98579 303.775 402.84375 309 C 398.70171 314.225 392.50544 321.2 389.09375 324.5 C 379.09325 334.17309 370.6957 345.19899 365.34375 355.6875 C 362.59594 361.07253 360.03308 366.5125 359.65625 367.75 C 358.35328 372.02886 360.9578 370.00369 364.71875 363.8125 C 372.11715 351.63341 402.50285 321.34579 428.21875 300.5 C 435.00369 295 443.13625 288.1375 446.3125 285.25 C 452.67864 279.4626 452.18334 279.6604 460.625 279.5625 C 466.05567 279.49953 467.36396 279.02556 474.46875 274.5 C 478.78604 271.75 483.55665 268.4875 485.09375 267.25 C 486.63085 266.0125 488.36765 265 488.9375 265 C 489.50736 265 490.1055 266.0125 490.28125 267.25 C 490.78549 270.80038 495.3332 270.81185 497.625 267.28125 C 499.50374 264.387 504.55907 258.31264 516.53125 244.5 C 520.34497 240.1 529.90174 229.975 537.75 222 C 556.3589 203.0906 561.91677 193.94802 557.53125 189.5625 C 555.19761 187.22886 551.87406 187.63485 547.5 190.8125 C 542.25635 194.62187 512.73204 230.12654 507.09375 239.40625 C 501.19633 249.11244 491.52544 257.5349 479.625 263.28125 C 474.675 265.67144 470.00484 268.39144 469.25 269.3125 C 467.86561 271.00173 464.125 271.66678 464.125 270.21875 C 464.125 269.78903 466.83494 266.75153 470.15625 263.46875 C 474.80476 258.87416 476.12852 256.92445 475.90625 255 C 475.28486 249.61994 471.78702 251.93149 454.1875 269.34375 C 444.82587 278.60577 436.2277 287.66524 435.09375 289.5 C 433.95981 291.33475 431.06095 293.99701 428.65625 295.40625 C 426.25155 296.8155 422.1734 299.56215 419.59375 301.53125 C 417.01409 303.50034 414.68947 304.90822 414.40625 304.625 C 414.12303 304.34178 418.51439 298.54815 424.1875 291.78125 C 429.86062 285.01435 436.11086 277.21627 438.0625 274.4375 C 447.88362 260.45409 474.53232 233.65962 495.125 217.03125 C 498.15 214.58859 506.5742 206.82081 513.84375 199.78125 C 524.06974 189.87877 528.51965 186.26751 533.59375 183.84375 C 537.73391 181.86611 541.28188 179.28925 543.21875 176.84375 C 544.90626 174.71309 549.64621 170.23403 553.71875 166.90625 C 562.83636 159.45598 563.6123 158.12564 561.71875 153.59375 C 560.1957 149.94857 557.3688 148.46674 553.75 149.375 C 551.26661 149.99829 522.89773 178.19545 518.21875 184.6875 C 516.5598 186.98927 512.5543 190.63226 509.34375 192.8125 C 506.13321 194.99273 500.38689 200.06271 496.5625 204.0625 C 482.80985 218.44592 468.49897 232.31771 461.90625 237.625 C 458.21244 240.59859 453.71244 244.94914 451.90625 247.3125 C 446.13827 254.85975 438.67317 262.7799 437.125 263 C 431.96439 263.73368 429.125 260.19974 429.125 253 C 429.125 248.4139 430.40065 245.51754 436.8125 235.875 C 440.31043 230.61461 442.86026 228.16472 449.0625 224.125 C 456.74981 219.118 459.42218 215.79399 461.5 208.5 C 462.29064 205.72453 460.77728 203.65286 458.5 204.40625 C 456.36795 205.1116 447.18029 213.66913 445.46875 216.5625 C 443.39177 220.07367 442.84095 217.13865 444.5625 211.78125 C 445.96774 207.40819 448.02162 204.68903 456.4375 196.125 C 462.03556 190.4284 470.73032 182.47379 475.75 178.4375 C 480.76968 174.4012 488.76024 167.39115 493.53125 162.875 C 500.6075 156.17674 502.15198 154.21093 501.90625 152.125 C 501.66758 150.09906 500.87781 149.40246 498.125 148.84375 C 492.82694 147.76846 489.29064 149.84108 478.25 160.40625 C 465.6973 172.41837 463.7027 172.79974 466.125 162.6875 C 466.6774 160.38145 467.49579 152.36214 467.9375 144.875 C 468.72225 131.57311 468.78527 131.16752 471.9375 127.1875 C 476.25579 121.73522 498.65726 108 503.21875 108 C 504.22541 108 508.74892 106.62285 513.28125 104.96875 C 517.81358 103.31466 525.33948 101.24831 530 100.375 C 534.66052 99.501702 539.59504 98.3854 540.9375 97.875 C 542.27995 97.3646 548.60697 96.25789 555 95.4375 C 561.39303 94.61711 571.35 93.06387 577.125 91.96875 C 595.06859 88.5661 644.49696 86.18385 684.5 86.8125 C 695.43456 86.98434 705.44706 86.85827 706.75 86.53125 C 710.27678 85.64609 709.62351 83.1248 705.375 81.21875 C 702.11973 79.75833 698.26086 79.54316 676.125 79.78125 z M 811.75 156.4375 C 809.6684 156.83938 805.16239 160.71875 793.625 171.46875 C 785.09409 179.41744 775.64024 186.93224 766.125 193.34375 C 734.11031 214.9157 732.29006 216.36452 735.65625 217.65625 C 737.64275 218.41854 740.96002 216.53933 751.4375 208.78125 C 759.45666 202.84345 762.44977 201.7944 763.5 204.53125 C 764.3129 206.64965 758.83171 217.22104 754.28125 222.3125 C 744.72911 233.00025 735.9995 245.52199 728.21875 259.65625 C 724.86493 265.74869 722.125 271.02687 722.125 271.40625 C 722.125 272.84068 724.32847 270.5888 730.53125 262.90625 C 734.97165 257.40652 737.57963 253.04961 739.03125 248.6875 C 740.77601 243.44451 742.32312 241.24162 748.21875 235.4375 C 752.10845 231.60817 756.66872 226.475 758.375 224 C 763.14403 217.08242 780.12626 196.3993 788.125 187.75 C 792.0683 183.48597 798.86163 177.2073 803.25 173.8125 C 813.03616 166.242 815.92567 161.38871 813.1875 157.0625 C 812.86222 156.54857 812.44387 156.30354 811.75 156.4375 z M 500.875 167.9375 C 498.61963 167.63002 494.93268 170.59369 483 180.8125 C 478.93553 184.2932 473.51495 188.90104 470.96875 191.03125 C 466.21105 195.01167 464.00836 199.66516 466.21875 201.03125 C 468.27482 202.30197 475.21154 199.16297 480.15625 194.71875 C 482.74986 192.38766 489.176 186.675 494.46875 182 C 503.92995 173.64308 505.29324 171.57449 502.90625 169.1875 C 502.22246 168.50371 501.62679 168.03999 500.875 167.9375 z M 598.625 177.28125 C 595.52372 176.92352 591.62039 178.62617 586.28125 182.59375 C 581.12768 186.42343 580.125 187.66698 580.125 190.15625 C 580.125 192.99151 580.30716 193.12476 583.875 192.8125 C 587.27784 192.51468 587.63017 192.74404 587.90625 195.125 C 588.14931 197.22116 586.60489 199.47689 580.15625 206.4375 C 575.71662 211.22961 569.1179 217.69773 565.5 220.8125 C 561.88209 223.92727 553.80355 231.59297 547.53125 237.8125 C 536.52448 248.72664 536.125 249.26886 536.125 253.40625 C 536.125 257.64458 537.62159 259.99307 541.125 261.28125 C 544.10366 262.37649 545.85333 261.93964 554 258 C 559.04793 255.55888 562.10945 253.50987 561.84375 252.75 C 561.2696 251.10799 551.61838 251.32502 549.5625 253.03125 C 547.23956 254.95912 545.20438 252.64383 546.875 249.96875 C 547.54873 248.88994 548.125 247.49541 548.125 246.84375 C 548.125 244.98364 551.23676 242 553.1875 242 C 555.91406 242 560.8502 237.29923 562.09375 233.53125 C 563.61725 228.91501 565.31181 227.75716 571.8125 226.875 C 575.88664 226.32213 578.21808 225.35397 580.5 223.25 C 582.21498 221.66876 586.21382 218.42758 589.40625 216.03125 C 592.59867 213.63492 597.1561 209.48548 599.53125 206.84375 C 603.8017 202.09398 603.86095 201.94693 604.3125 193.34375 C 604.88178 182.49765 604.4735 180.26081 601.5 178.3125 C 600.62374 177.73835 599.65876 177.40049 598.625 177.28125 z M 716.25 191.28125 C 711.97086 190.69338 705.02362 194.09711 698.9375 200.28125 C 691.38328 207.95714 684.125 212.14468 684.125 208.8125 C 684.125 208.16526 685.65386 205.35276 687.53125 202.5625 C 693.5819 193.5698 693.11838 191.01221 685.6875 192.40625 C 683.03711 192.90347 681.71174 193.98712 679.78125 197.28125 C 675.83183 204.02043 660.47877 219.67501 654.25 223.3125 C 649.09599 226.32236 648.55242 226.96561 648.03125 230.8125 C 647.56094 234.28408 646.50583 235.93157 641.90625 240.25 C 638.84178 243.12717 634.86233 246.4 633.0625 247.5 C 629.10764 249.91708 627.56462 252.15049 628.40625 254.34375 C 629.53948 257.29691 632.90344 256.08647 638.9375 250.5 C 642.20486 247.475 645.36216 245 645.96875 245 C 646.57534 245 648.59353 246.64414 650.4375 248.65625 C 652.28147 250.66837 654.23575 252.02464 654.78125 251.6875 C 655.32675 251.35037 656.37334 247.79373 657.09375 243.78125 C 657.81417 239.76878 658.97098 235.54583 659.6875 234.375 C 660.40402 233.20416 664.78704 230.18506 669.40625 227.6875 C 674.02545 225.18994 680.4762 221.4191 683.75 219.3125 C 687.02381 217.20589 691.93076 214.44181 694.65625 213.15625 C 714.34134 203.87114 716.61506 202.50753 718.625 198.75 C 720.17462 195.85303 720.35296 194.61449 719.5 193.25 C 718.79569 192.12331 717.67638 191.47721 716.25 191.28125 z M 638.53125 192.25 C 637.74114 191.9854 636.53986 192.11487 634.34375 192.40625 C 626.7813 193.4096 610.1418 202.35304 600.84375 210.4375 C 596.38699 214.31256 591.37514 219.03453 589.6875 220.9375 C 587.99985 222.84047 583.13467 228.10871 578.875 232.625 C 574.61533 237.14129 570.67783 242.0147 570.125 243.46875 C 568.41914 247.9555 568.92261 251.89137 571.5625 254.53125 C 572.9125 255.88125 575.1625 257 576.5625 257 C 579.46515 257 579.53393 256.79718 577.96875 252.46875 C 576.15913 247.46434 577.56302 244.66773 586.375 235.75 C 590.90979 231.16078 598.70319 223.10087 603.71875 217.8125 C 608.73432 212.52412 615.4182 206.4627 618.5625 204.375 C 623.85479 200.86112 624.78994 200.5899 631.125 200.6875 C 636.6784 200.77307 638.28424 200.45684 639.6875 198.90625 C 641.13219 197.30988 641.24171 196.55157 640.25 194.375 C 639.6979 193.16326 639.32136 192.5146 638.53125 192.25 z M 718.625 206.21875 C 717.16747 206.01294 713.64142 209.22679 705.625 218.09375 C 699.575 224.78565 693.32353 231.43658 691.75 232.875 C 675.69875 247.54804 675.86107 247.32982 678.3125 249.78125 C 679.83727 251.30602 681.55403 250.80409 692.6875 245.46875 C 711.12729 236.63209 720.90516 228.37391 717.25 224.71875 C 715.43483 222.90358 715.94151 219.72858 718.6875 215.6875 C 721.72764 211.2136 721.69754 206.65261 718.625 206.21875 z M 632.40625 207.28125 C 628.24013 207.18946 619.66683 212.6913 610.9375 221.65625 C 604.14591 228.63115 592.125 243.86532 592.125 245.46875 C 592.125 246.82678 596.554 253.01993 598.34375 254.15625 C 600.31933 255.41055 604.43805 255.0756 606.5625 253.46875 C 607.63012 252.66124 610.52929 252 613 252 C 616.68974 252 619.12883 250.97363 626.78125 246.34375 C 635.75283 240.91574 637.82047 238.56997 634.625 237.34375 C 632.21679 236.41963 628.79687 237.69283 622.5 241.84375 C 616.27753 245.94564 607.125 248.23263 607.125 245.6875 C 607.125 242.60162 614.522 233.02271 621.09375 227.625 C 628.67091 221.40148 635.51404 212.35056 634.9375 209.3125 C 634.67978 207.95445 633.79496 207.31185 632.40625 207.28125 z M 438.75 212.3125 C 440.04 213.6025 423.83107 234.2864 412.625 245.65625 C 405.93262 252.44644 400.13996 258 399.75 258 C 397.87381 258 398.11833 254.48698 400.25 250.46875 C 402.65267 245.93967 437.67076 211.23325 438.75 212.3125 z "
   style="fill:#000000"
   id="path3013"
   d="m 676.125,80.84375 c -14.00497,0.150635 -33.35015,0.757987 -42.9375,1.3125 -9.69161,0.560553 -28.35793,0.727945 -41.59375,0.375 C 561.75824,81.735677 547.51496,83.140731 526.1875,89 c -16.5397,4.543938 -24.86285,7.469735 -43.9375,15.5 -10.9294,4.60118 -13.68844,6.20319 -17.09375,9.84375 -4.65402,4.97554 -6.41504,10.19754 -5.5,15.90625 0.91487,5.70758 1.78422,17.84973 1.875,25.75 0.0616,5.35926 -0.67454,8.6463 -3.71875,16.375 -5.05647,12.83743 -5.34531,13.23857 -15.9375,24.21875 -5.11807,5.30555 -12.71171,13.18095 -16.875,17.5 -8.03641,8.33708 -31.10053,26.21137 -46.8125,36.34375 -5.3716,3.46406 -12.0354,6.76184 -16.4375,8.125 -3.88762,1.20385 -8.55417,3.07064 -9.96875,3.90625 -2.39285,1.41349 -4.79354,1.7472 -6.6875,0.84375 -1.89396,-0.90345 -3.03125,-3.00726 -3.03125,-5.625 0,-1.64396 0.55033,-3.23081 2.34375,-5.5625 1.79342,-2.33169 4.86845,-5.61346 10.21875,-11.125 13.74887,-14.16323 22.68772,-22.25075 30.90625,-27.9375 2.818,-1.94991 10.99566,-9.18924 17.84375,-15.875 12.81088,-12.50721 35.12455,-33.42866 45.40625,-42.5625 2.83008,-2.51413 4.21149,-3.82439 4.75,-4.8125 0.53851,-0.98811 0.49691,-1.9292 0.34375,-4.34375 -0.12841,-2.02438 -0.34128,-3.18378 -0.5625,-3.65625 -0.11061,-0.23623 -0.16981,-0.30607 -0.28125,-0.375 -0.11144,-0.0689 -0.32264,-0.13542 -0.6875,-0.1875 -0.21969,-0.0314 -0.97359,0.0519 -1.78125,0.375 -0.80766,0.32306 -1.70731,0.84924 -2.40625,1.40625 -1.67366,1.3338 -4.52297,3.195 -6.53125,4.28125 -0.74361,0.40221 -2.43611,1.7285 -4.3125,3.4375 -1.87639,1.709 -4.00581,3.82466 -5.90625,5.90625 -3.89285,4.26391 -8.89031,9.01517 -11.4375,10.78125 -1.13135,0.78442 -3.35726,2.80254 -6.03125,5.46875 -2.67399,2.66621 -5.82723,5.99727 -9.0625,9.53125 -6.47054,7.06796 -13.19839,14.95447 -16.71875,19.8125 -5.21051,7.1904 -16.97032,18.47435 -30.875,29.75 -3.77242,3.05915 -10.39778,9.35275 -14.5625,13.875 -4.45677,4.83935 -10.17756,9.86067 -13.75,11.96875 -3.14354,1.85498 -12.73198,8.00622 -21.25,13.59375 -10.17587,6.67502 -15.62627,10.21582 -18.90625,11.875 -1.63999,0.82959 -2.76114,1.22716 -3.8125,1.21875 -1.05136,-0.008 -1.86796,-0.58672 -2.4375,-1.15625 -0.74069,-0.7407 -1.29907,-1.64921 -1.34375,-2.75 -0.0447,-1.10079 0.25472,-2.28566 0.8125,-4.15625 1.18783,-3.98352 5.08178,-8.29287 22.03125,-25.375 11.27644,-11.3647 24.70845,-24.37711 29.96875,-29.03125 5.08141,-4.49587 17.99508,-17.91717 28.46875,-29.625 14.85942,-16.61038 20.13914,-23.34218 24.28125,-30.65625 3.64392,-6.43436 5.41249,-11.34845 5.4375,-14.03125 0.0125,-1.3414 -0.31358,-1.97043 -0.84375,-2.3125 -0.53017,-0.34207 -1.57957,-0.48596 -3.25,-0.0625 0.1647,-0.0418 -0.46345,0.2575 -1.125,0.8125 -0.66155,0.555 -1.50935,1.34803 -2.46875,2.3125 -1.91879,1.92894 -4.27552,4.5468 -6.59375,7.34375 -4.71238,5.6855 -14.36007,16.40416 -21.53125,23.875 -12.73562,13.26779 -27.18151,29.6542 -47,53.4375 -16.11271,19.33616 -23.26886,26.30497 -37.1875,36.1875 -18.37282,13.04509 -24.22687,16.47147 -49.125,28.875 -19.01447,9.47246 -30.07683,14.83935 -37.125,17.625 -3.52409,1.39282 -6.0345,2.15067 -8.09375,2.4375 -2.05925,0.28683 -3.66995,0.0697 -5.125,-0.4375 -2.96362,-1.03312 -4.95292,-2.8461 -5.4375,-5.375 -0.48458,-2.5289 0.40131,-5.50121 2.375,-9.03125 1.36526,-2.44184 4.13613,-7.59814 6.125,-11.4375 2.69219,-5.19706 10.4922,-14.20859 19.15625,-23.03125 C 203.6328,260.14609 213.0431,251.67654 219,248 c 4.55342,-2.81032 7.76697,-4.41106 10.40625,-4.84375 1.31964,-0.21634 2.54786,-0.13567 3.59375,0.34375 1.04589,0.47942 1.85043,1.30468 2.53125,2.34375 1.00197,1.5292 1.46171,3.17557 1.15625,4.84375 -0.30546,1.66818 -1.2675,3.28111 -2.8125,5.0625 -0.8391,0.96749 -1.14436,1.55166 -1.15625,1.625 -0.006,0.0367 -0.0202,-8.1e-4 0.0312,0.0937 0.0515,0.0946 0.19379,0.28754 0.46875,0.5625 0.64386,0.64386 1.18619,0.78925 1.78125,0.71875 0.59506,-0.0705 1.3142,-0.44988 2.0625,-1.21875 1.49659,-1.53773 2.92934,-4.53097 3.53125,-8.34375 0.80183,-5.0792 -2.39141,-9.56515 -6.84375,-9.9375 -3.0713,-0.25685 -7.64766,1.14101 -13.34375,4.34375 -5.69609,3.20274 -12.51589,8.1605 -20.28125,14.75 -3.79901,3.22374 -7.51669,6.43897 -10.4375,9.03125 -2.92081,2.59228 -5.12903,4.65964 -5.625,5.21875 -4.80012,5.41123 -14.66579,20.94283 -17.6875,27.84375 -2.77529,6.33818 -3.0635,7.78519 -2.5625,11.9375 0.15844,1.31314 0.43924,2.78103 0.78125,4.03125 0.34201,1.25022 0.77978,2.3165 1.03125,2.71875 0.46994,0.75168 2.00811,1.82422 4.03125,2.5625 2.02314,0.73828 4.49892,1.21405 6.78125,1.21875 0.66683,0.001 3.21,-0.63149 6.40625,-1.78125 3.19625,-1.14976 7.22289,-2.78269 11.53125,-4.65625 8.61673,-3.74713 18.40236,-8.47851 25.21875,-12.40625 6.88168,-3.96537 18.12208,-10.37393 25,-14.25 6.85369,-3.86243 15.85895,-9.25819 19.9375,-11.90625 2.09858,-1.36254 4.25819,-2.54938 6.03125,-3.40625 0.88653,-0.42844 1.6635,-0.76463 2.34375,-1 0.68025,-0.23537 1.18669,-0.43624 1.875,-0.34375 0.49484,0.0665 0.94447,0.18984 1.40625,0.46875 0.46178,0.27891 0.84893,0.76055 1.03125,1.28125 0.36464,1.0414 0.29196,2.20968 0.15625,4.1875 -0.12442,1.81326 -0.0736,2.9429 0.1875,3.8125 0.26115,0.8696 0.73802,1.59802 1.71875,2.65625 0.6195,0.66845 1.39895,1.28654 2.09375,1.71875 0.6948,0.43221 1.37875,0.62542 1.4375,0.625 1.5741,-0.0104 4.64836,-0.683 7.53125,-1.625 2.88289,-0.942 5.69348,-2.22478 6.71875,-3.03125 0.80291,-0.63157 1.70809,-1.17943 2.5625,-1.59375 0.85441,-0.41432 1.58655,-0.71875 2.40625,-0.71875 -0.14522,0 0.20576,-0.0485 0.65625,-0.25 0.45049,-0.2015 1.06393,-0.52698 1.78125,-0.9375 1.43464,-0.82104 3.32241,-2.01663 5.46875,-3.46875 4.29268,-2.90424 9.65341,-6.83736 14.71875,-10.875 1.82822,-1.4573 3.59591,-2.77952 5,-3.75 0.70204,-0.48524 1.31949,-0.86722 1.8125,-1.15625 0.2465,-0.14451 0.45021,-0.24938 0.65625,-0.34375 0.20604,-0.0944 0.33301,-0.21875 0.78125,-0.21875 0.56577,0 0.81442,0.1923 1.15625,0.375 0.34183,0.1827 0.68933,0.40102 1.09375,0.6875 0.80883,0.57296 1.74676,1.33791 2.65625,2.1875 2.96528,2.76998 8.01628,4.71035 12.3125,4.71875 -0.0461,-9e-5 0.53873,-0.0912 1.28125,-0.34375 0.74252,-0.25252 1.74929,-0.64331 2.90625,-1.125 2.31392,-0.96338 5.33867,-2.33919 8.6875,-3.9375 6.69766,-3.19662 14.69317,-7.3128 21.09375,-10.9375 1.73005,-0.97974 3.16324,-1.67485 4.34375,-2.125 1.18051,-0.45015 2.10452,-0.69793 3.0625,-0.4375 0.47899,0.13022 0.95163,0.43714 1.21875,0.875 0.26712,0.43786 0.37087,0.9241 0.375,1.40625 0.008,0.9643 -0.292,2.05325 -0.78125,3.40625 -0.90317,2.49767 -1.2794,5.22124 -1.15625,7.40625 0.0616,1.0925 0.26411,2.06418 0.53125,2.75 0.26714,0.68582 0.58855,1.05092 0.84375,1.1875 2.30072,1.23131 3.92513,1.39601 6.6875,0.0312 2.76237,-1.36476 6.53152,-4.45349 12.15625,-9.78125 2.0682,-1.959 4.02282,-3.73359 5.5625,-5.03125 0.76984,-0.64883 1.44818,-1.18024 1.96875,-1.5625 0.26029,-0.19113 0.4781,-0.34445 0.6875,-0.46875 0.2094,-0.1243 0.25107,-0.28125 0.875,-0.28125 0.37182,0 0.74066,0.20866 0.9375,0.40625 0.19684,0.19759 0.26865,0.37991 0.34375,0.5625 0.15019,0.36518 0.21037,0.71018 0.25,1.125 0.0793,0.82963 0.0597,1.88752 -0.0937,3.03125 -0.31626,2.35793 -0.0999,3.86333 0.78125,5.15625 0.88113,1.29292 2.57543,2.46655 5.40625,3.71875 2.01929,0.89323 3.24671,1.46999 4.09375,2.46875 0.84704,0.99876 1,2.24152 1,3.78125 0,2.70041 -1.86772,6.37 -4.71875,10.75 -2.85103,4.38 -6.74538,9.32251 -11.0625,13.8125 -3.38593,3.52151 -9.60226,10.71348 -13.71875,15.90625 -4.17652,5.2685 -10.3564,12.22056 -13.84375,15.59375 -9.92415,9.59924 -18.27803,20.54999 -23.5625,30.90625 -1.36885,2.68262 -2.69333,5.38715 -3.71875,7.5625 -0.84665,1.79611 -1.25901,2.89905 -1.53125,3.59375 0.78806,-0.99048 1.70807,-2.29586 2.78125,-4.0625 3.83137,-6.30712 13.26983,-16.86811 25.03125,-28.59375 11.76142,-11.72564 25.82429,-24.51626 38.71875,-34.96875 6.77172,-5.48929 14.90294,-12.37483 18.03125,-15.21875 3.17738,-2.88853 4.72362,-4.39482 6.71875,-5.1875 1.99513,-0.79268 4.09972,-0.73239 8.3125,-0.78125 2.68543,-0.0311 4.19264,-0.14369 5.9375,-0.78125 1.74486,-0.63756 3.8021,-1.86907 7.34375,-4.125 4.29527,-2.73597 9.12006,-6.02012 10.53125,-7.15625 0.81055,-0.65256 1.65381,-1.24761 2.40625,-1.6875 0.37622,-0.21995 0.73595,-0.42275 1.0625,-0.5625 0.32655,-0.13975 0.57421,-0.25 1.03125,-0.25 0.91407,0 1.38332,0.62395 1.71875,1.1875 0.33543,0.56355 0.58171,1.22383 0.6875,1.96875 0.18963,1.33517 0.87315,1.74618 1.9375,1.75 1.06435,0.004 2.4666,-0.66055 3.4375,-2.15625 1.983,-3.05486 7.0238,-9.05772 19,-22.875 3.86073,-4.45423 13.4201,-14.5744 21.28125,-22.5625 9.2815,-9.43138 15.26777,-16.42124 18.34375,-21.46875 1.53799,-2.52376 2.33215,-4.5403 2.5,-6.0625 0.16785,-1.5222 -0.17594,-2.51969 -1.0625,-3.40625 -0.96674,-0.96674 -1.97818,-1.2982 -3.375,-1.125 -1.39682,0.1732 -3.18032,0.97373 -5.28125,2.5 -1.05959,0.76976 -3.98215,3.72404 -7.5625,7.71875 -3.58035,3.99471 -7.94845,9.09555 -12.3125,14.34375 -8.7281,10.4964 -17.54593,21.76829 -20.25,26.21875 -6.02342,9.91357 -15.84273,18.45615 -27.90625,24.28125 -2.45071,1.18337 -4.83638,2.45452 -6.6875,3.53125 -0.92556,0.53837 -1.72243,1.0056 -2.3125,1.40625 -0.59007,0.40065 -1.02046,0.79934 -1.03125,0.8125 -0.9462,1.15455 -2.39001,1.7645 -3.71875,2 -0.66437,0.11775 -1.30331,0.13319 -1.9375,-0.0625 -0.31709,-0.0978 -0.63511,-0.26009 -0.90625,-0.5625 -0.27114,-0.30241 -0.4375,-0.74657 -0.4375,-1.15625 0,-0.61197 0.16777,-0.65986 0.28125,-0.84375 0.11348,-0.18389 0.23984,-0.37809 0.40625,-0.59375 0.33283,-0.43132 0.78706,-0.93917 1.34375,-1.5625 1.11338,-1.24665 2.63808,-2.845 4.3125,-4.5 2.30668,-2.27992 3.7582,-3.90915 4.5625,-5.09375 0.8043,-1.1846 0.95387,-1.81717 0.875,-2.5 -0.0707,-0.61178 -0.1661,-1.08993 -0.28125,-1.34375 -0.11515,-0.25382 -0.17882,-0.26576 -0.21875,-0.28125 -0.0399,-0.0155 -0.22224,-0.0385 -0.625,0.0937 -0.40276,0.13223 -0.97796,0.41697 -1.71875,0.90625 -2.96316,1.95713 -8.27105,6.89584 -17.0625,15.59375 -4.6733,4.62358 -9.17394,9.20279 -12.625,12.84375 -1.72553,1.82048 -3.18167,3.41797 -4.28125,4.65625 -1.09958,1.23828 -1.85786,2.1882 -2.03125,2.46875 -1.318,2.13257 -4.22559,4.73398 -6.8125,6.25 -2.33724,1.36972 -6.40835,4.13195 -8.9375,6.0625 -1.3151,1.00383 -2.57135,1.87481 -3.5625,2.46875 -0.49557,0.29697 -0.92633,0.52824 -1.3125,0.6875 -0.19308,0.0796 -0.35769,0.14992 -0.59375,0.1875 -0.23606,0.0376 -0.67713,0.10412 -1.125,-0.34375 -0.29023,-0.29023 -0.31413,-0.63253 -0.3125,-0.8125 0.002,-0.17997 0.005,-0.28645 0.0312,-0.375 0.0534,-0.17711 0.11863,-0.2747 0.1875,-0.40625 0.13775,-0.2631 0.32114,-0.54527 0.5625,-0.90625 0.48273,-0.72195 1.20049,-1.70033 2.09375,-2.875 1.78653,-2.34933 4.3105,-5.51183 7.15625,-8.90625 5.66177,-6.75337 11.93672,-14.61049 13.8125,-17.28125 9.97374,-14.20072 36.60312,-40.89638 57.28125,-57.59375 2.91857,-2.35672 11.36953,-10.16158 18.625,-17.1875 10.24391,-9.91983 14.80481,-13.65972 20.03125,-16.15625 4.0293,-1.92469 7.47964,-4.45224 9.25,-6.6875 1.83873,-2.3216 6.53479,-6.72599 10.65625,-10.09375 4.54625,-3.71488 6.97868,-5.92108 7.90625,-7.46875 0.46378,-0.77383 0.60181,-1.35521 0.5625,-2.03125 -0.0393,-0.67604 -0.29369,-1.50165 -0.75,-2.59375 -0.69113,-1.65412 -1.62604,-2.70425 -2.71875,-3.28125 -1.09271,-0.577 -2.4175,-0.71753 -4.03125,-0.3125 0.18756,-0.0471 -0.0983,0.0651 -0.40625,0.28125 -0.30798,0.21613 -0.72035,0.52643 -1.21875,0.9375 -0.9968,0.82214 -2.31097,1.99748 -3.84375,3.40625 -3.06556,2.81754 -6.98228,6.60039 -10.96875,10.5625 -7.97294,7.92422 -16.29814,16.70705 -18.46875,19.71875 -1.82232,2.52845 -5.83044,6.11649 -9.15625,8.375 -3.0647,2.08119 -8.8268,7.15404 -12.59375,11.09375 -13.77127,14.40289 -28.06915,28.25286 -34.78125,33.65625 -3.62784,2.92049 -8.14129,7.34451 -9.8125,9.53125 -2.90939,3.80686 -6.2212,7.67425 -9.03125,10.65625 -1.40502,1.491 -2.70297,2.76131 -3.75,3.6875 -0.52352,0.4631 -0.98796,0.83463 -1.40625,1.125 -0.41829,0.29037 -0.70714,0.54338 -1.28125,0.625 -2.8425,0.40412 -5.32186,-0.45925 -6.90625,-2.4375 -1.58439,-1.97825 -2.3125,-4.88548 -2.3125,-8.625 0,-2.39154 0.36091,-4.47952 1.53125,-7.09375 1.17034,-2.61423 3.12866,-5.78994 6.34375,-10.625 3.54552,-5.33196 6.276,-7.957 12.53125,-12.03125 7.60149,-4.9511 9.96463,-7.88629 12,-15.03125 0.32731,-1.14901 0.12702,-2.0391 -0.1875,-2.46875 -0.31452,-0.42965 -0.64113,-0.60721 -1.4375,-0.34375 -0.1409,0.0466 -1.2182,0.70312 -2.375,1.625 -1.1568,0.92188 -2.53366,2.12664 -3.90625,3.40625 -2.74518,2.55922 -5.52215,5.53148 -6.1875,6.65625 -0.56274,0.95132 -0.92055,1.58434 -1.75,1.9375 -0.41473,0.17658 -1.14493,0.10373 -1.53125,-0.25 -0.38632,-0.35373 -0.46322,-0.73347 -0.53125,-1.09375 -0.27213,-1.44114 0.11184,-3.45484 1,-6.21875 0.72912,-2.26899 1.67095,-4.22204 3.46875,-6.59375 1.7978,-2.37171 4.4392,-5.20871 8.65625,-9.5 5.63697,-5.73619 14.32225,-13.66199 19.40625,-17.75 4.98063,-4.0049 12.97922,-11.0449 17.71875,-15.53125 3.52847,-3.33999 5.65187,-5.48094 6.8125,-6.96875 1.16063,-1.48781 1.30682,-2.12736 1.21875,-2.875 -0.10506,-0.89181 -0.26546,-1.21431 -0.59375,-1.5 -0.32829,-0.28569 -1.03228,-0.60882 -2.34375,-0.875 -2.47349,-0.50202 -4.26676,-0.29758 -7.03125,1.3125 -2.76449,1.61008 -6.37054,4.73259 -11.875,10 -3.1463,3.0108 -5.63694,5.27331 -7.59375,6.875 -1.95681,1.60169 -3.28322,2.55947 -4.625,2.8125 -0.67089,0.12651 -1.5257,-0.062 -2,-0.625 -0.4743,-0.56303 -0.59961,-1.22147 -0.625,-1.9375 -0.0508,-1.43207 0.32458,-3.31629 0.9375,-5.875 0.2389,-0.99731 0.61039,-3.60076 0.9375,-6.8125 0.32711,-3.21174 0.62385,-7.08517 0.84375,-10.8125 0.39244,-6.65198 0.5807,-10.07618 1.125,-12.5 0.5443,-2.42382 1.50887,-3.78017 3.09375,-5.78125 1.22233,-1.54332 3.46986,-3.4214 6.28125,-5.5 2.81139,-2.0786 6.18444,-4.30329 9.5625,-6.375 3.37806,-2.07171 6.77135,-3.98035 9.625,-5.375 1.42682,-0.69733 2.70201,-1.28194 3.8125,-1.6875 1.11049,-0.40556 2.00701,-0.65625 2.84375,-0.65625 0.009,0 0.4866,-0.0709 1.09375,-0.21875 0.60715,-0.14782 1.41341,-0.35326 2.3125,-0.625 1.79819,-0.54348 4.03281,-1.30442 6.28125,-2.125 4.62044,-1.68625 12.15106,-3.73395 16.90625,-4.625 2.31643,-0.434058 4.6885,-0.926666 6.65625,-1.375 1.96775,-0.448334 3.58619,-0.900776 4.09375,-1.09375 0.95101,-0.361573 2.7762,-0.709945 5.34375,-1.15625 2.56755,-0.446305 5.7563,-0.93151 8.96875,-1.34375 6.36325,-0.816568 16.32645,-2.349766 22.0625,-3.4375 18.20526,-3.452271 67.53481,-5.817029 107.59375,-5.1875 5.45811,0.08578 10.6683,0.08199 14.6875,0.03125 2.0096,-0.02537 3.72478,-0.03938 5,-0.09375 1.27522,-0.05437 2.25146,-0.180023 2.28125,-0.1875 0.7587,-0.190419 1.18306,-0.454577 1.34375,-0.625 0.16069,-0.170423 0.14077,-0.162156 0.0937,-0.34375 -0.094,-0.363188 -1.0168,-1.454006 -3,-2.34375 -1.50238,-0.674018 -3.07392,-1.046225 -7.15625,-1.25 -4.08233,-0.203775 -10.59243,-0.212751 -21.65625,-0.09375 z m 135.8125,76.625 c -0.55622,0.10739 -2.23697,1.07133 -5.03125,3.40625 -2.79428,2.33492 -6.79764,6.00357 -12.5625,11.375 -8.57297,7.98788 -18.06117,15.5245 -27.625,21.96875 -16.00594,10.78503 -24.48464,16.56502 -28.4375,19.71875 -1.85279,1.47822 -2.48421,2.38277 -2.59375,2.5625 0.10426,0.0581 0.12836,0.0736 0.34375,0.15625 0.268,0.10284 0.58047,0.15311 1.1875,0 0.60703,-0.15311 1.47721,-0.50994 2.625,-1.15625 2.29558,-1.29262 5.74013,-3.69096 10.96875,-7.5625 4.03633,-2.98871 6.77866,-4.78241 8.90625,-5.53125 1.06379,-0.37442 2.04699,-0.53041 2.9375,-0.21875 0.89051,0.31166 1.51259,1.10578 1.84375,1.96875 0.22608,0.58915 0.15822,1.12559 0.0625,1.71875 -0.0957,0.59316 -0.25161,1.24649 -0.5,1.96875 -0.49678,1.44452 -1.28269,3.13206 -2.21875,4.9375 -1.87212,3.61088 -4.40381,7.58991 -6.78125,10.25 -9.49171,10.62014 -18.15956,23.0526 -25.90625,37.125 -1.56774,2.8479 -2.95332,5.43321 -4.03125,7.5 1.2516,-1.41135 2.3929,-2.68035 4.59375,-5.40625 4.39585,-5.44455 6.91433,-9.70475 8.3125,-13.90625 1.77602,-5.33692 3.51232,-7.82304 9.4375,-13.65625 3.84729,-3.78758 8.43742,-8.96936 10.03125,-11.28125 4.87629,-7.07316 21.78073,-27.65619 29.84375,-36.375 4.00329,-4.3289 10.77991,-10.60448 15.25,-14.0625 4.84621,-3.74899 7.93401,-6.8017 9.40625,-9.28125 1.47224,-2.47955 1.46402,-4.19376 0.28125,-6.0625 -0.0934,-0.14753 -0.12549,-0.15648 -0.125,-0.15625 4.9e-4,2.3e-4 -0.0292,-0.0366 -0.21875,0 z M 500.71875,169 c -0.5983,-0.0816 -1.89477,0.34458 -4.53125,2.28125 -2.63648,1.93667 -6.53618,5.2365 -12.5,10.34375 -4.06708,3.48294 -9.47591,8.08089 -12.03125,10.21875 -2.28447,1.91125 -3.94652,3.99745 -4.71875,5.625 -0.38611,0.81378 -0.55001,1.50568 -0.53125,1.9375 0.0188,0.43182 0.11895,0.56051 0.375,0.71875 0.1204,0.0744 0.70382,0.1932 1.59375,0.0312 0.88993,-0.16195 2.03313,-0.52862 3.28125,-1.09375 2.49625,-1.13026 5.4001,-2.98486 7.78125,-5.125 2.60069,-2.33745 9.01769,-8.04193 14.3125,-12.71875 4.71698,-4.16643 7.41943,-6.79681 8.5,-8.4375 0.54029,-0.82035 0.65517,-1.32443 0.625,-1.65625 -0.0302,-0.33182 -0.212,-0.68075 -0.71875,-1.1875 -0.63547,-0.63547 -1.03622,-0.88279 -1.4375,-0.9375 z M 598.5,178.34375 c -2.61931,-0.30213 -6.33678,1.18723 -11.59375,5.09375 -2.55908,1.90168 -4.04176,3.17693 -4.8125,4.125 -0.77074,0.94807 -0.90625,1.49174 -0.90625,2.59375 0,0.69744 0.0151,1.20436 0.0625,1.46875 0.0474,0.26439 0.0629,0.20998 0.0312,0.1875 -0.0317,-0.0225 0.10397,0.0519 0.53125,0.0625 0.42728,0.0106 1.08411,-0.0476 1.96875,-0.125 1.72819,-0.15125 2.79474,-0.30891 3.8125,0.28125 0.50888,0.29508 0.85231,0.84043 1.03125,1.34375 0.17894,0.50332 0.27198,1.00602 0.34375,1.625 0.1562,1.34711 -0.33325,2.76801 -1.5625,4.5625 -1.22925,1.79449 -3.23428,4.10249 -6.46875,7.59375 -4.4724,4.82748 -11.06505,11.29625 -14.75,14.46875 -3.55737,3.06265 -11.64789,10.73179 -17.90625,16.9375 -5.5017,5.4554 -8.34513,8.3413 -9.71875,10.21875 -1.37362,1.87745 -1.375,2.59049 -1.375,4.625 0,1.99413 0.36151,3.4148 1.03125,4.46875 0.66974,1.05395 1.67981,1.81741 3.28125,2.40625 1.38316,0.50858 2.21095,0.64181 3.875,0.21875 1.66405,-0.42306 4.09589,-1.50521 8.15625,-3.46875 2.49487,-1.20649 4.48798,-2.29065 5.78125,-3.15625 0.48853,-0.32698 0.76812,-0.58219 1.03125,-0.8125 -0.1837,-0.0548 -0.30745,-0.11016 -0.5625,-0.15625 -0.90768,-0.16403 -2.18269,-0.24868 -3.5,-0.21875 -1.31731,0.0299 -2.68791,0.18689 -3.8125,0.40625 -1.12459,0.21936 -2.01057,0.57723 -2.21875,0.75 -0.7198,0.59738 -1.49796,0.94922 -2.28125,0.96875 -0.78329,0.0195 -1.53896,-0.31443 -2.03125,-0.875 -0.98457,-1.12115 -0.97966,-2.91254 0.0312,-4.53125 0.30001,-0.4804 0.60951,-1.06014 0.8125,-1.5625 0.20299,-0.50236 0.28125,-0.9873 0.28125,-1 0,-1.52242 0.98152,-2.78004 2.125,-3.875 1.14348,-1.09496 2.48304,-2.03125 4,-2.03125 0.7528,0 2.65171,-0.98092 4.28125,-2.53125 1.62954,-1.55033 3.09312,-3.60715 3.625,-5.21875 0.7902,-2.39433 1.73063,-4.10279 3.40625,-5.25 1.67562,-1.14721 3.85673,-1.67725 7.15625,-2.125 3.9639,-0.53791 5.98878,-1.37412 8.125,-3.34375 1.78814,-1.64869 5.78039,-4.86452 9,-7.28125 3.10975,-2.33428 7.67554,-6.51191 9.96875,-9.0625 2.13321,-2.37265 3.06859,-3.4569 3.59375,-4.9375 0.52516,-1.4806 0.68059,-3.60677 0.90625,-7.90625 0.28374,-5.40596 0.30229,-8.63793 -0.0625,-10.59375 -0.36479,-1.95582 -0.93174,-2.61577 -2.28125,-3.5 -0.73701,-0.48291 -1.52465,-0.74206 -2.40625,-0.84375 z m 117.59375,14 c -1.78891,-0.24576 -4.43178,0.35489 -7.34375,1.84375 -2.91197,1.48886 -6.09284,3.82626 -9.0625,6.84375 -3.82868,3.89034 -7.57101,6.89261 -10.46875,8.5625 -1.44887,0.83494 -2.64017,1.37472 -3.78125,1.4375 -0.57054,0.0314 -1.19907,-0.0974 -1.6875,-0.53125 -0.48843,-0.43387 -0.6875,-1.07815 -0.6875,-1.6875 0,-0.58002 0.15128,-0.83728 0.34375,-1.28125 0.19247,-0.44397 0.46257,-0.97729 0.78125,-1.5625 0.63737,-1.17041 1.51233,-2.57852 2.46875,-4 1.49614,-2.22361 2.56803,-4.04195 3.21875,-5.4375 0.65072,-1.39555 0.82022,-2.36306 0.75,-2.75 -0.0351,-0.19347 -0.0885,-0.26003 -0.1875,-0.34375 -0.099,-0.0837 -0.28299,-0.1808 -0.65625,-0.25 -0.74652,-0.13839 -2.10835,-0.0873 -3.90625,0.25 -1.21928,0.22874 -1.99866,0.56841 -2.75,1.1875 -0.75134,0.61909 -1.50018,1.58809 -2.4375,3.1875 -2.0969,3.57808 -6.9197,9.16262 -12.0625,14.40625 -5.1428,5.24363 -10.48452,10.03827 -13.84375,12 -2.56259,1.49651 -3.89241,2.41182 -4.5625,3.21875 -0.67009,0.80693 -0.86995,1.64869 -1.125,3.53125 -0.24634,1.81836 -0.70238,3.29162 -1.6875,4.8125 -0.98512,1.52088 -2.46187,3.07239 -4.78125,5.25 -3.10596,2.91613 -6.99467,6.1494 -9,7.375 -1.90566,1.16468 -3.17693,2.25687 -3.8125,3.1875 -0.63557,0.93063 -0.70606,1.5937 -0.40625,2.375 0.21163,0.55151 0.41219,0.72049 0.65625,0.8125 0.24406,0.092 0.68071,0.10765 1.40625,-0.15625 1.45108,-0.52781 3.77712,-2.15389 6.75,-4.90625 1.65287,-1.53026 3.25695,-2.91559 4.5625,-3.9375 0.65278,-0.51095 1.24149,-0.94169 1.71875,-1.25 0.23863,-0.15415 0.44484,-0.27182 0.65625,-0.375 0.21141,-0.10318 0.37548,-0.21875 0.8125,-0.21875 0.63153,0 0.88292,0.21291 1.25,0.4375 0.36708,0.22459 0.75669,0.52299 1.1875,0.875 0.86162,0.70401 1.85746,1.64538 2.8125,2.6875 0.87601,0.9559 1.80249,1.76408 2.5,2.25 0.23592,0.16436 0.36786,0.22828 0.53125,0.3125 0.007,-0.017 0.0238,-0.0135 0.0312,-0.0312 0.16092,-0.38355 0.35977,-0.96445 0.5625,-1.65625 0.40545,-1.38361 0.86471,-3.24684 1.21875,-5.21875 0.36623,-2.03978 0.83371,-4.13511 1.3125,-5.875 0.47879,-1.73989 0.88404,-3.05292 1.40625,-3.90625 0.32473,-0.53062 0.7851,-0.91969 1.40625,-1.4375 0.62115,-0.51781 1.38081,-1.09895 2.28125,-1.71875 1.80088,-1.23959 4.09402,-2.63915 6.4375,-3.90625 4.58967,-2.48159 11.05634,-6.26861 14.28125,-8.34375 3.32442,-2.13918 8.18809,-4.89243 11,-6.21875 9.83867,-4.64073 15.33751,-7.29954 18.53125,-9.21875 3.19374,-1.91921 4.01715,-2.93976 4.96875,-4.71875 0.75311,-1.40791 1.12135,-2.37692 1.21875,-3 0.0974,-0.62308 0.0198,-0.90597 -0.3125,-1.4375 -0.53292,-0.85252 -1.3113,-1.30544 -2.5,-1.46875 z M 638.1875,193.25 c -0.38372,-0.12851 -1.53204,-0.0714 -3.71875,0.21875 -3.47398,0.46091 -9.51061,2.87882 -15.71875,6.21875 -6.20814,3.33993 -12.66014,7.59888 -17.21875,11.5625 -4.43188,3.85343 -9.48878,8.63173 -11.0625,10.40625 -1.71433,1.93306 -6.54692,7.16495 -10.8125,11.6875 -2.11107,2.23825 -4.15397,4.59282 -5.71875,6.53125 -0.78239,0.96922 -1.4446,1.82861 -1.9375,2.53125 -0.4929,0.70264 -0.81561,1.28128 -0.875,1.4375 -1.60785,4.22896 -1.12684,7.62317 1.1875,9.9375 1.14019,1.14019 3.41592,2.15625 4.25,2.15625 0.66686,0 1.11409,-0.0219 1.34375,-0.0625 -0.007,-0.0532 -0.006,-0.15149 -0.125,-0.59375 -0.14972,-0.5584 -0.42295,-1.36023 -0.8125,-2.4375 -0.9562,-2.64433 -1.05762,-5.08658 0.28125,-7.75 1.33887,-2.66342 3.94981,-5.61546 8.375,-10.09375 4.52541,-4.57973 12.30418,-12.62552 17.3125,-17.90625 5.06094,-5.33622 11.67552,-11.36567 15.03125,-13.59375 5.31935,-3.53184 6.82052,-3.97309 13.1875,-3.875 2.75497,0.0425 4.48577,-0.0214 5.59375,-0.25 1.10798,-0.22855 1.56579,-0.53504 2.15625,-1.1875 0.67515,-0.74604 0.89518,-1.13565 0.9375,-1.46875 0.0423,-0.3331 -0.0921,-0.87375 -0.5625,-1.90625 -0.26792,-0.58803 -0.48777,-0.99572 -0.65625,-1.21875 -0.16848,-0.22303 -0.24212,-0.27832 -0.4375,-0.34375 z m 80.28125,14.03125 c 0.0733,0.0103 -0.24668,0.0231 -0.8125,0.375 -0.56582,0.35185 -1.33749,0.95625 -2.34375,1.875 -2.01252,1.8375 -4.90718,4.85788 -8.90625,9.28125 -6.05931,6.7022 -12.19454,13.25045 -13.9375,14.84375 -8.02624,7.33709 -12.01392,10.99884 -13.53125,12.90625 -0.75866,0.95371 -0.79943,1.31407 -0.78125,1.40625 0.0182,0.0922 0.28368,0.43993 0.90625,1.0625 0.29011,0.29011 0.4115,0.35927 0.71875,0.40625 0.30725,0.047 0.88388,0.0278 1.8125,-0.25 1.85724,-0.55566 5.06575,-2.02342 10.625,-4.6875 9.16958,-4.39422 16.17516,-8.63494 20.34375,-12.15625 2.08429,-1.76066 3.45549,-3.34247 4.03125,-4.53125 0.28788,-0.59439 0.37112,-1.08795 0.34375,-1.4375 -0.0274,-0.34955 -0.13504,-0.60379 -0.4375,-0.90625 -1.16151,-1.16151 -1.56171,-2.83291 -1.28125,-4.59375 0.28046,-1.76084 1.16514,-3.67886 2.59375,-5.78125 1.42484,-2.0968 2.07203,-4.21241 2.0625,-5.65625 -0.005,-0.72192 -0.14561,-1.26304 -0.375,-1.59375 -0.22939,-0.33071 -0.51802,-0.49003 -1.03125,-0.5625 z m -86.09375,1.0625 c -1.59973,-0.0352 -4.73355,1.19502 -8.40625,3.625 -3.6727,2.42998 -7.96207,6.00174 -12.28125,10.4375 -3.34466,3.43493 -8.03848,8.98527 -11.875,13.84375 -1.91826,2.42924 -3.63001,4.67123 -4.84375,6.40625 -0.60687,0.86751 -1.08913,1.61501 -1.40625,2.15625 -0.15856,0.27062 -0.27961,0.48102 -0.34375,0.625 -0.0641,0.14398 -0.0312,0.26287 -0.0312,0.0312 0,-0.11895 0.025,0.0706 0.125,0.3125 0.1,0.2419 0.2611,0.56766 0.46875,0.9375 0.4153,0.73968 1.00861,1.6574 1.65625,2.5625 0.64764,0.9051 1.33198,1.80403 1.96875,2.53125 0.63677,0.72722 1.25381,1.28119 1.5,1.4375 0.66966,0.42517 2.02592,0.67689 3.40625,0.5625 1.38033,-0.11439 2.76662,-0.56189 3.59375,-1.1875 0.79152,-0.59868 1.87865,-0.93442 3.125,-1.21875 1.24635,-0.28433 2.63863,-0.46875 3.96875,-0.46875 1.74637,0 3.0759,-0.20729 5,-1 1.9241,-0.79271 4.40556,-2.19294 8.21875,-4.5 4.45873,-2.69763 7.20897,-4.68331 8.25,-5.875 0.52052,-0.59585 0.49051,-0.85178 0.5,-0.8125 0.009,0.0393 -0.0614,-0.15401 -0.71875,-0.40625 -0.89473,-0.34334 -2.06815,-0.32729 -3.875,0.34375 -1.80685,0.67104 -4.16493,1.97696 -7.28125,4.03125 -3.23531,2.13274 -7.14357,3.7626 -10.34375,4.5625 -1.60009,0.39995 -3.02185,0.5969 -4.1875,0.5 -0.58283,-0.0485 -1.12964,-0.14212 -1.625,-0.46875 -0.49536,-0.32663 -0.875,-0.98852 -0.875,-1.625 0,-1.19586 0.57296,-2.39262 1.40625,-3.875 0.83329,-1.48238 1.98492,-3.17955 3.34375,-4.9375 2.71765,-3.51589 6.22077,-7.2921 9.59375,-10.0625 3.71461,-3.051 7.2837,-6.84255 9.8125,-10.1875 1.2644,-1.67248 2.2718,-3.21683 2.90625,-4.5 0.63445,-1.28317 0.8356,-2.33859 0.78125,-2.625 -0.0931,-0.4904 -0.26573,-0.71609 -0.46875,-0.875 -0.20302,-0.15891 -0.52691,-0.26945 -1.0625,-0.28125 z m -193.71875,2.875 c 0.2124,-0.002 0.57414,0.0741 0.84375,0.34375 0.52817,0.52817 0.42547,1.07385 0.34375,1.4375 -0.0817,0.36365 -0.24726,0.69771 -0.4375,1.09375 -0.38047,0.79208 -0.94797,1.79818 -1.71875,2.96875 -1.54157,2.34114 -3.81136,5.42108 -6.46875,8.8125 -5.31477,6.78285 -12.19439,14.79933 -17.84375,20.53125 -3.35212,3.40111 -6.46837,6.50261 -8.8125,8.75 -1.17206,1.1237 -2.1553,2.01413 -2.875,2.65625 -0.35985,0.32106 -0.63587,0.59214 -0.875,0.78125 -0.11956,0.0946 -0.2289,0.1445 -0.34375,0.21875 -0.0574,0.0371 -0.13014,0.083 -0.21875,0.125 -0.0886,0.042 -0.17264,0.125 -0.5,0.125 -0.80056,0 -1.58451,-0.52078 -1.9375,-1.1875 -0.35299,-0.66672 -0.42955,-1.40948 -0.375,-2.21875 0.10911,-1.61854 0.75698,-3.58002 1.875,-5.6875 0.41904,-0.7899 1.23172,-1.78836 2.4375,-3.1875 1.20578,-1.39914 2.76841,-3.1187 4.59375,-5.0625 3.65067,-3.88759 8.30395,-8.62623 12.90625,-13.1875 4.6023,-4.56127 9.16611,-8.93594 12.65625,-12.125 1.74507,-1.59453 3.21252,-2.89904 4.3125,-3.78125 0.54999,-0.44111 0.98769,-0.76001 1.375,-1 0.19366,-0.11999 0.36134,-0.23149 0.59375,-0.3125 0.1162,-0.0405 0.25635,-0.0915 0.46875,-0.0937 z"
   transform="translate(-163.61127,-80.766484)" /></svg>